<svg width="32" height="22" viewBox="0 0 32 22" fill="none" xmlns="http://www.w3.org/2000/svg">
<path d="M31.6023 4.59539C31.2855 4.37108 30.8625 4.36651 30.5421 4.58164L25.1607 8.12745C24.9538 8.2657 24.8092 8.48083 24.7615 8.72526C24.7121 8.96876 24.7634 9.22239 24.9025 9.42933C25.212 9.89076 25.375 10.4291 25.375 10.9866C25.375 12.5375 24.1134 13.7991 22.5625 13.7991C21.0116 13.7991 19.75 12.5375 19.75 10.9866C19.75 10.0748 20.2004 9.21508 20.953 8.68589C21.376 8.38926 21.4785 7.80514 21.1819 7.38126L16.7672 1.07426C16.4193 0.572576 15.5807 0.572576 15.2327 1.07426L10.8181 7.38133C10.5215 7.8052 10.624 8.38933 11.047 8.68595C11.7995 9.21514 12.25 10.0748 12.25 10.9867C12.25 12.5376 10.9884 13.7992 9.43748 13.7992C7.88661 13.7992 6.62498 12.5376 6.62498 10.9867C6.62498 10.4291 6.78792 9.89083 7.09742 9.42939C7.23661 9.22245 7.28786 8.96889 7.23842 8.72533C7.1908 8.48089 7.04617 8.2657 6.83923 8.12751L1.45786 4.5817C1.13561 4.36658 0.714422 4.37114 0.397672 4.59545C0.0809221 4.81883 -0.0655778 5.21345 0.0277971 5.58883L3.83998 20.5888C3.95717 21.0613 4.41492 21.3771 4.9038 21.2865C12.2683 20.0596 19.7317 20.0596 27.0962 21.2865C27.1474 21.2956 27.2005 21.2993 27.25 21.2993C27.673 21.2993 28.0538 21.0118 28.16 20.5888L31.9722 5.58883C32.0655 5.21339 31.9191 4.81876 31.6023 4.59539Z" fill="url(#paint0_linear)"/>
<defs>
<linearGradient id="paint0_linear" x1="16" y1="21.3019" x2="16" y2="0.698013" gradientUnits="userSpaceOnUse">
<stop stop-color="#FD5900"/>
<stop offset="1" stop-color="#FFDE00"/>
</linearGradient>
</defs>
</svg>
